<svg xmlns="http://www.w3.org/2000/svg" width="26.616" height="26.616" viewBox="0 0 26.616 26.616">
  <defs>
    <style>
      .cls-1 {
        fill: #a3c145;
      }
    </style>
  </defs>
  <path id="ic_call_24px" class="cls-1" d="M8.353,14.519A22.4,22.4,0,0,0,18.1,24.264l3.253-3.253a1.47,1.47,0,0,1,1.508-.355,16.867,16.867,0,0,0,5.279.843,1.483,1.483,0,0,1,1.479,1.479v5.161a1.483,1.483,0,0,1-1.479,1.479A25.136,25.136,0,0,1,3,4.479,1.483,1.483,0,0,1,4.479,3H9.654a1.483,1.483,0,0,1,1.479,1.479,16.8,16.8,0,0,0,.843,5.279,1.484,1.484,0,0,1-.37,1.508Z" transform="translate(-3 -3)"/>
</svg>
